<svg width="512" height="512" viewBox="0 0 512 512" fill="none" xmlns="http://www.w3.org/2000/svg">
  <rect width="512" height="512" rx="120" fill="#2563eb"/>
  <g filter="url(#shadow)">
    <circle cx="256" cy="256" r="120" fill="#fff"/>
    <path d="M256 180c-42 0-76 34-76 76s34 76 76 76 76-34 76-76-34-76-76-76zm0 32a44 44 0 110 88 44 44 0 010-88zm0-60c-8 0-14 6-14 14v20a14 14 0 0028 0v-20c0-8-6-14-14-14zm0 236c-8 0-14-6-14-14v-20a14 14 0 0128 0v20c0 8-6 14-14 14zm76-76c0-8 6-14 14-14h20a14 14 0 010 28h-20c-8 0-14-6-14-14zm-236 0c0-8 6-14 14-14h20a14 14 0 010 28h-20c-8 0-14-6-14-14zm168.6-97.6a14 14 0 01-19.8-19.8l14.1-14.1a14 14 0 0119.8 19.8l-14.1 14.1zm-97.6 168.6a14 14 0 01-19.8-19.8l14.1-14.1a14 14 0 0119.8 19.8l-14.1 14.1zm168.6 97.6a14 14 0 01-19.8-19.8l14.1-14.1a14 14 0 0119.8 19.8l-14.1 14.1zm-97.6-168.6a14 14 0 01-19.8-19.8l14.1-14.1a14 14 0 0119.8 19.8l-14.1 14.1z" fill="#2563eb"/>
    <text x="256" y="285" text-anchor="middle" font-size="56" font-family="Arial, Helvetica, sans-serif" font-weight="bold" fill="#2563eb">Ticket</text>
  </g>
  <defs>
    <filter id="shadow" x="80" y="80" width="352" height="352" filterUnits="userSpaceOnUse" color-interpolation-filters="sRGB">
      <feDropShadow dx="0" dy="8" stdDeviation="16" flood-color="#000" flood-opacity="0.12"/>
    </filter>
  </defs>
</svg>
